<mxfile host="app.diagrams.net" modified="2023-04-18T05:37:43.282Z" agent="Mozilla/5.0 (X11; Linux x86_64; rv:109.0) Gecko/20100101 Firefox/112.0" etag="vSjJYYzIh-CKMH68jjm-" version="21.1.8" type="device">
  <diagram id="UOtnxrRyxmIjTTSUvChX" name="Page-1">
    <mxGraphModel dx="1434" dy="748" grid="1" gridSize="10" guides="1" tooltips="1" connect="1" arrows="1" fold="1" page="1" pageScale="1" pageWidth="827" pageHeight="1169" math="0" shadow="0">
      <root>
        <mxCell id="0" />
        <mxCell id="1" parent="0" />
        <mxCell id="2pzYETJfUhNSbG5DD_v1-6" value="" style="swimlane;startSize=0;" parent="1" vertex="1">
          <mxGeometry x="693" y="540" width="399" height="310" as="geometry" />
        </mxCell>
        <mxCell id="2pzYETJfUhNSbG5DD_v1-7" value="&lt;font style=&quot;font-size: 20px;&quot;&gt;Internal libraries&lt;br&gt;&lt;/font&gt;" style="text;html=1;align=center;verticalAlign=middle;resizable=0;points=[];autosize=1;strokeColor=none;fillColor=none;" parent="2pzYETJfUhNSbG5DD_v1-6" vertex="1">
          <mxGeometry x="110" width="170" height="40" as="geometry" />
        </mxCell>
        <mxCell id="2pzYETJfUhNSbG5DD_v1-49" value="PoolHelper" style="swimlane;whiteSpace=wrap;html=1;fillColor=#ffbe6f;fontSize=10;" parent="2pzYETJfUhNSbG5DD_v1-6" vertex="1">
          <mxGeometry x="297" y="30" width="79" height="76" as="geometry" />
        </mxCell>
        <mxCell id="2pzYETJfUhNSbG5DD_v1-8" value="Buckets" style="swimlane;whiteSpace=wrap;html=1;fillColor=#ffbe6f;" parent="1" vertex="1">
          <mxGeometry x="707" y="570" width="120" height="110" as="geometry" />
        </mxCell>
        <mxCell id="2pzYETJfUhNSbG5DD_v1-9" value="Deposits" style="swimlane;whiteSpace=wrap;html=1;fillColor=#ffbe6f;" parent="1" vertex="1">
          <mxGeometry x="840" y="570" width="120" height="110" as="geometry" />
        </mxCell>
        <mxCell id="2pzYETJfUhNSbG5DD_v1-10" value="Maths" style="swimlane;whiteSpace=wrap;html=1;fillColor=#ffbe6f;" parent="1" vertex="1">
          <mxGeometry x="841" y="704" width="120" height="110" as="geometry" />
        </mxCell>
        <mxCell id="2pzYETJfUhNSbG5DD_v1-11" value="Loans" style="swimlane;whiteSpace=wrap;html=1;fillColor=#ffbe6f;" parent="1" vertex="1">
          <mxGeometry x="708" y="704" width="120" height="110" as="geometry" />
        </mxCell>
        <mxCell id="2pzYETJfUhNSbG5DD_v1-19" style="edgeStyle=orthogonalEdgeStyle;rounded=0;orthogonalLoop=1;jettySize=auto;html=1;fontSize=20;endArrow=none;endFill=0;" parent="1" source="2pzYETJfUhNSbG5DD_v1-12" target="2pzYETJfUhNSbG5DD_v1-6" edge="1">
          <mxGeometry relative="1" as="geometry">
            <Array as="points">
              <mxPoint x="590" y="695" />
              <mxPoint x="590" y="695" />
            </Array>
          </mxGeometry>
        </mxCell>
        <mxCell id="2pzYETJfUhNSbG5DD_v1-12" value="" style="swimlane;startSize=0;" parent="1" vertex="1">
          <mxGeometry x="80" y="500" width="460" height="350" as="geometry" />
        </mxCell>
        <mxCell id="2pzYETJfUhNSbG5DD_v1-13" value="&lt;font style=&quot;font-size: 20px;&quot;&gt;External libraries&lt;br&gt;&lt;/font&gt;" style="text;html=1;align=center;verticalAlign=middle;resizable=0;points=[];autosize=1;strokeColor=none;fillColor=none;" parent="2pzYETJfUhNSbG5DD_v1-12" vertex="1">
          <mxGeometry x="110" width="170" height="40" as="geometry" />
        </mxCell>
        <mxCell id="2pzYETJfUhNSbG5DD_v1-4" value="LenderActions" style="swimlane;whiteSpace=wrap;html=1;fillColor=#8ff0a4;" parent="2pzYETJfUhNSbG5DD_v1-12" vertex="1">
          <mxGeometry x="9" y="30" width="140" height="110" as="geometry" />
        </mxCell>
        <mxCell id="2pzYETJfUhNSbG5DD_v1-56" value="&lt;div align=&quot;left&quot;&gt;- addCollateral()&lt;/div&gt;&lt;div align=&quot;left&quot;&gt;- addQuoteToken()&lt;/div&gt;&lt;div align=&quot;left&quot;&gt;- moveQuoteToken()&lt;/div&gt;&lt;div align=&quot;left&quot;&gt;- removeQuoteToken()&lt;/div&gt;&lt;div align=&quot;left&quot;&gt;- removeCollateral()&lt;/div&gt;&lt;div align=&quot;left&quot;&gt;- removeMaxCollateral()&lt;br&gt;&lt;/div&gt;" style="text;html=1;align=left;verticalAlign=middle;resizable=0;points=[];autosize=1;strokeColor=none;fillColor=none;fontSize=10;" parent="2pzYETJfUhNSbG5DD_v1-4" vertex="1">
          <mxGeometry x="10" y="22" width="130" height="90" as="geometry" />
        </mxCell>
        <mxCell id="2pzYETJfUhNSbG5DD_v1-2" value="BorrowerActions" style="swimlane;whiteSpace=wrap;html=1;fillColor=#8ff0a4;" parent="2pzYETJfUhNSbG5DD_v1-12" vertex="1">
          <mxGeometry x="159" y="30" width="140" height="110" as="geometry" />
        </mxCell>
        <mxCell id="2pzYETJfUhNSbG5DD_v1-55" value="&lt;div align=&quot;left&quot;&gt;- drawDebt()&lt;/div&gt;&lt;div align=&quot;left&quot;&gt;- repayDebt()&lt;br&gt;&lt;/div&gt;" style="text;html=1;align=left;verticalAlign=middle;resizable=0;points=[];autosize=1;strokeColor=none;fillColor=none;fontSize=10;labelBackgroundColor=none;" parent="2pzYETJfUhNSbG5DD_v1-2" vertex="1">
          <mxGeometry x="12.5" y="22" width="80" height="40" as="geometry" />
        </mxCell>
        <mxCell id="2pzYETJfUhNSbG5DD_v1-3" value="PoolCommons" style="swimlane;whiteSpace=wrap;html=1;fillColor=#8ff0a4;" parent="2pzYETJfUhNSbG5DD_v1-12" vertex="1">
          <mxGeometry x="72" y="280" width="140" height="61" as="geometry" />
        </mxCell>
        <mxCell id="2pzYETJfUhNSbG5DD_v1-57" value="&lt;div&gt;- updateInterestRate()&lt;/div&gt;&lt;div&gt;- accrueInterest()&lt;br&gt;&lt;/div&gt;" style="text;html=1;align=left;verticalAlign=middle;resizable=0;points=[];autosize=1;strokeColor=none;fillColor=none;fontSize=10;" parent="2pzYETJfUhNSbG5DD_v1-3" vertex="1">
          <mxGeometry x="20" y="21" width="120" height="40" as="geometry" />
        </mxCell>
        <mxCell id="2pzYETJfUhNSbG5DD_v1-52" value="PositionNFTSVG" style="swimlane;whiteSpace=wrap;html=1;fillColor=#8ff0a4;" parent="2pzYETJfUhNSbG5DD_v1-12" vertex="1">
          <mxGeometry x="236" y="280" width="140" height="59" as="geometry" />
        </mxCell>
        <mxCell id="2pzYETJfUhNSbG5DD_v1-1" value="KickerActions" style="swimlane;whiteSpace=wrap;html=1;fillColor=#8ff0a4;" parent="2pzYETJfUhNSbG5DD_v1-12" vertex="1">
          <mxGeometry x="8" y="170" width="141" height="80" as="geometry" />
        </mxCell>
        <mxCell id="2pzYETJfUhNSbG5DD_v1-53" value="&lt;div align=&quot;left&quot;&gt;- kick()&lt;/div&gt;&lt;div align=&quot;left&quot;&gt;- kickWithDeposit()&lt;/div&gt;&lt;div align=&quot;left&quot;&gt;- kickReserveAuction()&lt;/div&gt;" style="text;html=1;align=left;verticalAlign=middle;resizable=0;points=[];autosize=1;strokeColor=none;fillColor=none;fontSize=10;" parent="2pzYETJfUhNSbG5DD_v1-1" vertex="1">
          <mxGeometry x="12.5" y="27" width="120" height="50" as="geometry" />
        </mxCell>
        <mxCell id="oplPGZ64pU4IfsckmvwP-9" value="LPActions" style="swimlane;whiteSpace=wrap;html=1;fillColor=#8ff0a4;" vertex="1" parent="2pzYETJfUhNSbG5DD_v1-12">
          <mxGeometry x="310" y="30" width="142.5" height="111" as="geometry" />
        </mxCell>
        <mxCell id="oplPGZ64pU4IfsckmvwP-10" value="&lt;div align=&quot;left&quot;&gt;- increaseLPAllowance()&lt;/div&gt;&lt;div align=&quot;left&quot;&gt;- decreaseLPAllowance()&lt;/div&gt;&lt;div align=&quot;left&quot;&gt;- revokeLPAllowance&lt;/div&gt;&lt;div align=&quot;left&quot;&gt;- approveLPTransferors()&lt;/div&gt;&lt;div align=&quot;left&quot;&gt;- revokeLPTransferors()&lt;/div&gt;&lt;div align=&quot;left&quot;&gt;- transferLP()&lt;br&gt;&lt;/div&gt;" style="text;html=1;align=left;verticalAlign=middle;resizable=0;points=[];autosize=1;strokeColor=none;fillColor=none;fontSize=10;labelBackgroundColor=none;" vertex="1" parent="oplPGZ64pU4IfsckmvwP-9">
          <mxGeometry x="12.5" y="20" width="130" height="90" as="geometry" />
        </mxCell>
        <mxCell id="oplPGZ64pU4IfsckmvwP-2" value="SettlerActions" style="swimlane;whiteSpace=wrap;html=1;fillColor=#8ff0a4;" vertex="1" parent="2pzYETJfUhNSbG5DD_v1-12">
          <mxGeometry x="311" y="170" width="141.5" height="80" as="geometry" />
        </mxCell>
        <mxCell id="oplPGZ64pU4IfsckmvwP-3" value="&lt;div align=&quot;left&quot;&gt;- settlePoolDebt()&lt;/div&gt;" style="text;html=1;align=left;verticalAlign=middle;resizable=0;points=[];autosize=1;strokeColor=none;fillColor=none;fontSize=10;labelBackgroundColor=none;" vertex="1" parent="oplPGZ64pU4IfsckmvwP-2">
          <mxGeometry x="16.5" y="27" width="100" height="30" as="geometry" />
        </mxCell>
        <mxCell id="oplPGZ64pU4IfsckmvwP-6" value="TakerActions" style="swimlane;whiteSpace=wrap;html=1;fillColor=#8ff0a4;" vertex="1" parent="2pzYETJfUhNSbG5DD_v1-12">
          <mxGeometry x="159.5" y="170" width="141" height="80" as="geometry" />
        </mxCell>
        <mxCell id="oplPGZ64pU4IfsckmvwP-7" value="&lt;div&gt;- bucketTake()&lt;/div&gt;&lt;div&gt;- take()&lt;/div&gt;&lt;div&gt;- takeReserves()&lt;br&gt;&lt;/div&gt;" style="text;html=1;align=left;verticalAlign=middle;resizable=0;points=[];autosize=1;strokeColor=none;fillColor=none;fontSize=10;labelBackgroundColor=none;" vertex="1" parent="oplPGZ64pU4IfsckmvwP-6">
          <mxGeometry x="15.5" y="25" width="100" height="50" as="geometry" />
        </mxCell>
        <mxCell id="2pzYETJfUhNSbG5DD_v1-17" style="edgeStyle=orthogonalEdgeStyle;rounded=0;orthogonalLoop=1;jettySize=auto;html=1;exitX=0;exitY=0.5;exitDx=0;exitDy=0;entryX=0.5;entryY=1;entryDx=0;entryDy=0;fontSize=20;endArrow=classic;endFill=0;" parent="1" source="2pzYETJfUhNSbG5DD_v1-15" target="2pzYETJfUhNSbG5DD_v1-12" edge="1">
          <mxGeometry relative="1" as="geometry" />
        </mxCell>
        <mxCell id="2pzYETJfUhNSbG5DD_v1-18" style="edgeStyle=orthogonalEdgeStyle;rounded=0;orthogonalLoop=1;jettySize=auto;html=1;exitX=1;exitY=0.5;exitDx=0;exitDy=0;entryX=0.521;entryY=1.006;entryDx=0;entryDy=0;entryPerimeter=0;fontSize=20;endArrow=none;endFill=0;" parent="1" source="2pzYETJfUhNSbG5DD_v1-15" target="2pzYETJfUhNSbG5DD_v1-6" edge="1">
          <mxGeometry relative="1" as="geometry" />
        </mxCell>
        <mxCell id="2pzYETJfUhNSbG5DD_v1-20" value="&lt;font style=&quot;font-size: 10px;&quot;&gt;use internal libs&lt;br&gt;&lt;/font&gt;" style="edgeLabel;html=1;align=center;verticalAlign=middle;resizable=0;points=[];fontSize=20;labelBackgroundColor=none;" parent="2pzYETJfUhNSbG5DD_v1-18" vertex="1" connectable="0">
          <mxGeometry x="-0.072" y="-3" relative="1" as="geometry">
            <mxPoint x="-274" y="-379" as="offset" />
          </mxGeometry>
        </mxCell>
        <mxCell id="2pzYETJfUhNSbG5DD_v1-15" value="Pool" style="swimlane;whiteSpace=wrap;html=1;fillColor=#c0bfbc;" parent="1" vertex="1">
          <mxGeometry x="496" y="990" width="254" height="320" as="geometry" />
        </mxCell>
        <mxCell id="2pzYETJfUhNSbG5DD_v1-23" value="&lt;div align=&quot;left&quot;&gt;abstract contract&lt;/div&gt;&lt;div align=&quot;left&quot;&gt;Clone&lt;/div&gt;&lt;div align=&quot;left&quot;&gt;ReentrancyGuard&lt;/div&gt;&lt;div align=&quot;left&quot;&gt;Multicall&lt;/div&gt;&lt;div align=&quot;left&quot;&gt;&lt;br&gt;&lt;/div&gt;&lt;div align=&quot;left&quot;&gt;- addQuoteToken()&lt;/div&gt;&lt;div align=&quot;left&quot;&gt;- moveQuoteToken()&lt;/div&gt;&lt;div align=&quot;left&quot;&gt;- removeQuoteToken()&lt;/div&gt;&lt;div align=&quot;left&quot;&gt;&lt;br&gt;&lt;/div&gt;&lt;div align=&quot;left&quot;&gt;- kick()&lt;/div&gt;&lt;div align=&quot;left&quot;&gt;- kickWithDeposit()&lt;/div&gt;&lt;div align=&quot;left&quot;&gt;- withdrawBonds()&lt;/div&gt;&lt;div align=&quot;left&quot;&gt;- kickReserveAuction()&lt;/div&gt;&lt;div align=&quot;left&quot;&gt;- takeReserves()&lt;/div&gt;&lt;div align=&quot;left&quot;&gt;&lt;br&gt;&lt;/div&gt;&lt;div align=&quot;left&quot;&gt;- increaseLPAllowance()&lt;/div&gt;&lt;div align=&quot;left&quot;&gt;- decreaseLPAllowance()&lt;/div&gt;&lt;div align=&quot;left&quot;&gt;- revokeLPAllowance()&lt;/div&gt;&lt;div align=&quot;left&quot;&gt;- approveLPTransferors()&lt;/div&gt;&lt;div align=&quot;left&quot;&gt;- revokeLPTransferors()&lt;/div&gt;&lt;div align=&quot;left&quot;&gt;- transferLP()&lt;br&gt;&lt;/div&gt;&lt;div align=&quot;left&quot;&gt;&lt;br&gt;&lt;/div&gt;&lt;div align=&quot;left&quot;&gt;- updateInterest()&lt;/div&gt;&lt;div align=&quot;left&quot;&gt;- stampLoan()&lt;br&gt;&lt;/div&gt;" style="text;html=1;align=left;verticalAlign=middle;resizable=0;points=[];autosize=1;strokeColor=none;fillColor=none;fontSize=10;" parent="2pzYETJfUhNSbG5DD_v1-15" vertex="1">
          <mxGeometry x="61" y="21" width="130" height="300" as="geometry" />
        </mxCell>
        <mxCell id="2pzYETJfUhNSbG5DD_v1-21" value="&lt;font style=&quot;font-size: 10px;&quot;&gt;delegate calls to external libs&lt;br&gt;&lt;/font&gt;" style="edgeLabel;html=1;align=center;verticalAlign=middle;resizable=0;points=[];fontSize=20;labelBackgroundColor=none;" parent="1" vertex="1" connectable="0">
          <mxGeometry x="414" y="1138" as="geometry">
            <mxPoint x="8" y="-3" as="offset" />
          </mxGeometry>
        </mxCell>
        <mxCell id="2pzYETJfUhNSbG5DD_v1-22" value="&lt;font style=&quot;font-size: 10px;&quot;&gt;use internal libs&lt;br&gt;&lt;/font&gt;" style="edgeLabel;html=1;align=center;verticalAlign=middle;resizable=0;points=[];fontSize=20;labelBackgroundColor=none;" parent="1" vertex="1" connectable="0">
          <mxGeometry x="827" y="1136" as="geometry" />
        </mxCell>
        <mxCell id="2pzYETJfUhNSbG5DD_v1-27" style="edgeStyle=orthogonalEdgeStyle;rounded=0;orthogonalLoop=1;jettySize=auto;html=1;exitX=0.5;exitY=0;exitDx=0;exitDy=0;entryX=0.5;entryY=1;entryDx=0;entryDy=0;fontSize=10;endArrow=block;endFill=1;" parent="1" source="2pzYETJfUhNSbG5DD_v1-24" target="2pzYETJfUhNSbG5DD_v1-15" edge="1">
          <mxGeometry relative="1" as="geometry" />
        </mxCell>
        <mxCell id="2pzYETJfUhNSbG5DD_v1-24" value="FlashloanablePool" style="swimlane;whiteSpace=wrap;html=1;fillColor=#c0bfbc;" parent="1" vertex="1">
          <mxGeometry x="562.5" y="1365" width="120" height="110" as="geometry" />
        </mxCell>
        <mxCell id="2pzYETJfUhNSbG5DD_v1-25" value="&lt;div align=&quot;left&quot;&gt;abstract contract&lt;/div&gt;&lt;div align=&quot;left&quot;&gt;- flashLoan()&lt;/div&gt;&lt;div align=&quot;left&quot;&gt;- flashFee()&lt;/div&gt;&lt;div align=&quot;left&quot;&gt;- maxFlashLoan()&lt;br&gt;&lt;/div&gt;&lt;div align=&quot;left&quot;&gt;&lt;br&gt;&lt;/div&gt;" style="text;html=1;align=left;verticalAlign=middle;resizable=0;points=[];autosize=1;strokeColor=none;fillColor=none;fontSize=10;" parent="2pzYETJfUhNSbG5DD_v1-24" vertex="1">
          <mxGeometry x="10" y="25" width="100" height="70" as="geometry" />
        </mxCell>
        <mxCell id="2pzYETJfUhNSbG5DD_v1-34" style="edgeStyle=orthogonalEdgeStyle;rounded=0;orthogonalLoop=1;jettySize=auto;html=1;entryX=0;entryY=0.5;entryDx=0;entryDy=0;fontSize=10;endArrow=block;endFill=1;dashed=1;exitX=0.5;exitY=0;exitDx=0;exitDy=0;" parent="1" source="2pzYETJfUhNSbG5DD_v1-28" edge="1">
          <mxGeometry relative="1" as="geometry">
            <mxPoint x="502.5" y="1459" as="sourcePoint" />
            <mxPoint x="562.5" y="1421" as="targetPoint" />
            <Array as="points">
              <mxPoint x="503" y="1420" />
            </Array>
          </mxGeometry>
        </mxCell>
        <mxCell id="2pzYETJfUhNSbG5DD_v1-28" value="ERC20Pool" style="swimlane;whiteSpace=wrap;html=1;fillColor=#99c1f1;" parent="1" vertex="1">
          <mxGeometry x="442.5" y="1544" width="120" height="110" as="geometry" />
        </mxCell>
        <mxCell id="2pzYETJfUhNSbG5DD_v1-35" style="edgeStyle=orthogonalEdgeStyle;rounded=0;orthogonalLoop=1;jettySize=auto;html=1;entryX=1;entryY=0.5;entryDx=0;entryDy=0;fontSize=10;endArrow=block;endFill=1;dashed=1;" parent="1" edge="1">
          <mxGeometry relative="1" as="geometry">
            <mxPoint x="747.2857142857147" y="1544" as="sourcePoint" />
            <mxPoint x="682.5" y="1421" as="targetPoint" />
            <Array as="points">
              <mxPoint x="747" y="1421" />
            </Array>
          </mxGeometry>
        </mxCell>
        <mxCell id="2pzYETJfUhNSbG5DD_v1-30" value="ERC721Pool" style="swimlane;whiteSpace=wrap;html=1;fillColor=#99c1f1;" parent="1" vertex="1">
          <mxGeometry x="682.5" y="1543" width="129.5" height="114" as="geometry" />
        </mxCell>
        <mxCell id="2pzYETJfUhNSbG5DD_v1-43" style="edgeStyle=orthogonalEdgeStyle;rounded=0;orthogonalLoop=1;jettySize=auto;html=1;exitX=0.5;exitY=1;exitDx=0;exitDy=0;entryX=0;entryY=0.5;entryDx=0;entryDy=0;dashed=1;fontSize=10;endArrow=block;endFill=1;" parent="1" source="2pzYETJfUhNSbG5DD_v1-37" target="2pzYETJfUhNSbG5DD_v1-41" edge="1">
          <mxGeometry relative="1" as="geometry">
            <mxPoint x="502.5" y="1734" as="sourcePoint" />
            <mxPoint x="562.5" y="1843" as="targetPoint" />
          </mxGeometry>
        </mxCell>
        <mxCell id="2pzYETJfUhNSbG5DD_v1-45" style="edgeStyle=orthogonalEdgeStyle;rounded=0;orthogonalLoop=1;jettySize=auto;html=1;exitX=0.5;exitY=0;exitDx=0;exitDy=0;entryX=0.5;entryY=1;entryDx=0;entryDy=0;fontSize=10;endArrow=classic;endFill=1;" parent="1" edge="1">
          <mxGeometry relative="1" as="geometry">
            <mxPoint x="502.5" y="1711" as="sourcePoint" />
            <mxPoint x="502.5" y="1656" as="targetPoint" />
          </mxGeometry>
        </mxCell>
        <mxCell id="2pzYETJfUhNSbG5DD_v1-37" value="ERC20PoolFactory" style="swimlane;whiteSpace=wrap;html=1;fillColor=#99c1f1;" parent="1" vertex="1">
          <mxGeometry x="442.5" y="1710" width="120" height="110" as="geometry" />
        </mxCell>
        <mxCell id="2pzYETJfUhNSbG5DD_v1-44" style="edgeStyle=orthogonalEdgeStyle;rounded=0;orthogonalLoop=1;jettySize=auto;html=1;exitX=0.5;exitY=1;exitDx=0;exitDy=0;dashed=1;fontSize=10;endArrow=block;endFill=1;entryX=1;entryY=0.5;entryDx=0;entryDy=0;" parent="1" target="2pzYETJfUhNSbG5DD_v1-41" edge="1">
          <mxGeometry relative="1" as="geometry">
            <mxPoint x="682.5" y="1843" as="targetPoint" />
            <mxPoint x="742.5" y="1821" as="sourcePoint" />
          </mxGeometry>
        </mxCell>
        <mxCell id="2pzYETJfUhNSbG5DD_v1-46" style="edgeStyle=orthogonalEdgeStyle;rounded=0;orthogonalLoop=1;jettySize=auto;html=1;exitX=0.5;exitY=0;exitDx=0;exitDy=0;entryX=0.5;entryY=1;entryDx=0;entryDy=0;fontSize=10;endArrow=classic;endFill=1;" parent="1" edge="1">
          <mxGeometry relative="1" as="geometry">
            <mxPoint x="742.5" y="1656" as="targetPoint" />
            <mxPoint x="742.5" y="1711" as="sourcePoint" />
          </mxGeometry>
        </mxCell>
        <mxCell id="2pzYETJfUhNSbG5DD_v1-38" value="ERC721PoolFactory" style="swimlane;whiteSpace=wrap;html=1;fillColor=#99c1f1;" parent="1" vertex="1">
          <mxGeometry x="682.5" y="1710" width="120" height="110" as="geometry" />
        </mxCell>
        <mxCell id="2pzYETJfUhNSbG5DD_v1-41" value="PoolDepolyer" style="swimlane;whiteSpace=wrap;html=1;fillColor=#c0bfbc;" parent="1" vertex="1">
          <mxGeometry x="562.5" y="1869" width="120" height="110" as="geometry" />
        </mxCell>
        <mxCell id="2pzYETJfUhNSbG5DD_v1-42" value="abstract contract" style="text;html=1;align=center;verticalAlign=middle;resizable=0;points=[];autosize=1;strokeColor=none;fillColor=none;fontSize=10;" parent="2pzYETJfUhNSbG5DD_v1-41" vertex="1">
          <mxGeometry x="10" y="45" width="100" height="30" as="geometry" />
        </mxCell>
        <mxCell id="2pzYETJfUhNSbG5DD_v1-47" value="deploy pool" style="text;html=1;align=center;verticalAlign=middle;resizable=0;points=[];autosize=1;strokeColor=none;fillColor=none;fontSize=10;" parent="1" vertex="1">
          <mxGeometry x="497" y="1676" width="70" height="30" as="geometry" />
        </mxCell>
        <mxCell id="2pzYETJfUhNSbG5DD_v1-48" value="deploy pool" style="text;html=1;align=center;verticalAlign=middle;resizable=0;points=[];autosize=1;strokeColor=none;fillColor=none;fontSize=10;" parent="1" vertex="1">
          <mxGeometry x="742" y="1675" width="70" height="30" as="geometry" />
        </mxCell>
        <mxCell id="2pzYETJfUhNSbG5DD_v1-50" value="RevertsHelper" style="swimlane;whiteSpace=wrap;html=1;fillColor=#ffbe6f;fontSize=10;" parent="1" vertex="1">
          <mxGeometry x="990" y="652" width="79" height="76" as="geometry" />
        </mxCell>
        <mxCell id="2pzYETJfUhNSbG5DD_v1-51" value="SafeTokenerNamer" style="swimlane;whiteSpace=wrap;html=1;fillColor=#ffbe6f;fontSize=8;" parent="1" vertex="1">
          <mxGeometry x="990" y="736" width="79" height="76" as="geometry" />
        </mxCell>
        <mxCell id="2pzYETJfUhNSbG5DD_v1-58" value="- constructTokenURI()" style="text;html=1;align=center;verticalAlign=middle;resizable=0;points=[];autosize=1;strokeColor=none;fillColor=none;fontSize=10;" parent="1" vertex="1">
          <mxGeometry x="323" y="804" width="120" height="30" as="geometry" />
        </mxCell>
        <mxCell id="2pzYETJfUhNSbG5DD_v1-60" value="- deployPool()" style="text;html=1;align=center;verticalAlign=middle;resizable=0;points=[];autosize=1;strokeColor=none;fillColor=none;fontSize=10;" parent="1" vertex="1">
          <mxGeometry x="437" y="1742" width="90" height="30" as="geometry" />
        </mxCell>
        <mxCell id="2pzYETJfUhNSbG5DD_v1-61" value="- deployPool()" style="text;html=1;align=center;verticalAlign=middle;resizable=0;points=[];autosize=1;strokeColor=none;fillColor=none;fontSize=10;" parent="1" vertex="1">
          <mxGeometry x="677" y="1744" width="90" height="30" as="geometry" />
        </mxCell>
        <mxCell id="2pzYETJfUhNSbG5DD_v1-62" value="&lt;div align=&quot;left&quot;&gt;- drawDebt()&lt;/div&gt;&lt;div align=&quot;left&quot;&gt;- repayDebt()&lt;/div&gt;&lt;div align=&quot;left&quot;&gt;- addCollateral()&lt;/div&gt;&lt;div align=&quot;left&quot;&gt;- removeCollateral()&lt;/div&gt;&lt;div align=&quot;left&quot;&gt;- settle()&lt;/div&gt;&lt;div align=&quot;left&quot;&gt;- take()&lt;/div&gt;&lt;div align=&quot;left&quot;&gt;- bucketTake()&lt;br&gt;&lt;/div&gt;" style="text;html=1;align=left;verticalAlign=middle;resizable=0;points=[];autosize=1;strokeColor=none;fillColor=none;fontSize=10;" parent="1" vertex="1">
          <mxGeometry x="447" y="1561" width="110" height="100" as="geometry" />
        </mxCell>
        <mxCell id="2pzYETJfUhNSbG5DD_v1-63" value="&lt;div align=&quot;left&quot;&gt;- drawDebt()&lt;/div&gt;&lt;div align=&quot;left&quot;&gt;- repayDebt()&lt;/div&gt;&lt;div align=&quot;left&quot;&gt;- addCollateral()&lt;/div&gt;&lt;div align=&quot;left&quot;&gt;- merge/removeCollateral()&lt;/div&gt;&lt;div align=&quot;left&quot;&gt;- settle()&lt;/div&gt;&lt;div align=&quot;left&quot;&gt;- take()&lt;/div&gt;&lt;div align=&quot;left&quot;&gt;- bucketTake()&lt;br&gt;&lt;/div&gt;" style="text;html=1;align=left;verticalAlign=middle;resizable=0;points=[];autosize=1;strokeColor=none;fillColor=none;fontSize=10;" parent="1" vertex="1">
          <mxGeometry x="688" y="1560" width="140" height="100" as="geometry" />
        </mxCell>
      </root>
    </mxGraphModel>
  </diagram>
</mxfile>
